<svg width="1000" height="1000" viewBox="0 0 1000 1000" fill="none" xmlns="http://www.w3.org/2000/svg">
<path d="M189.105 196.592C189.428 196.21 189.811 195.857 190.163 195.494C259.234 126.894 370.846 118.074 459.967 146.063C503.538 159.734 537.72 198.15 578.684 217.211C592.316 223.532 606.683 227.697 622.392 228.128C663.494 229.255 701.88 202.08 742.874 205.206C795.206 209.126 826.027 262.046 833.475 309.086C845.764 386.869 810.17 471.266 765.855 533.408C741.531 567.551 714.16 599.068 687.896 631.643C667.521 656.996 654.095 695.343 681.036 721.686C716.806 756.642 727.811 679.281 769.98 696.941C874.968 740.894 862.992 835.121 839.159 875.458C817.403 912.355 775.459 937.109 732.691 940.608C725.902 941.166 719.078 941.166 712.288 940.608" stroke="#CCDDE2" stroke-width="4"/>
<path d="M378.333 687.611V687.935C378.333 695.138 410.222 722.607 415.024 727.693" stroke="#CCDDE2" stroke-width="4"/>
<path d="M279.108 940.255C269.435 940.578 260.292 940.539 251.609 940.186C151.12 927.848 75.5325 727.693 193.769 666.933" stroke="#CCDDE2" stroke-width="4"/>
<path d="M393.082 421.531V218.74C393.066 206.509 383.155 196.598 370.924 196.582H87.704C75.4925 196.625 65.6113 206.528 65.5952 218.74V620.824C65.6114 633.048 75.5287 642.948 87.753 642.943H370.973C373.72 642.962 376.444 642.439 378.989 641.404" stroke="black" stroke-width="4" stroke-linecap="round" stroke-linejoin="round"/>
<rect x="75.5327" y="210.155" width="307.612" height="419.283" rx="18.62" fill="#3FBDF1"/>
<rect x="93.6431" y="242.603" width="274.753" height="78.498" rx="9.31" fill="#3FBDF1"/>
<circle cx="229.334" cy="267.544" r="8.1242" fill="#D7E8F0"/>
<path d="M206.657 304.284C206.486 296.068 210.771 288.402 217.86 284.244C224.948 280.086 233.73 280.086 240.818 284.244C247.906 288.402 252.192 296.068 252.021 304.284H206.657Z" fill="#D7E8F0"/>
<path d="M121.123 356.146H334.753" stroke="white" stroke-width="5.4"/>
<path d="M121.123 377.177H334.753" stroke="white" stroke-width="5.4"/>
<path d="M121.123 512.593H334.753" stroke="white" stroke-width="5.4"/>
<path d="M170.74 532.477H285.135" stroke="white" stroke-width="5.4"/>
<path d="M175.257 456.654L158.215 474.765C154.455 478.761 148.848 480.448 143.507 479.19C138.165 477.932 133.901 473.92 132.32 468.665C130.739 463.41 132.082 457.711 135.842 453.714L152.874 435.604L175.257 456.654Z" fill="#3FBDF1"/>
<path d="M192.28 438.524L175.238 456.654L152.854 435.604L169.906 417.484C175.73 411.326 185.433 411.028 191.623 416.817C197.756 422.649 198.049 432.332 192.28 438.524Z" fill="#D7E8F0"/>
<path d="M258.518 426.725C257.793 423.217 264.986 417.415 267.338 416.151C276.09 411.565 289.555 415.024 294.347 423.785C305.353 443.875 274.434 472.511 258.469 479.587C256.637 478.117 212.958 445.443 223.189 424.53C233.421 403.617 255.98 414.24 258.518 426.725Z" fill="#D7E8F0"/>
<path d="M225.561 462.534H249.365" stroke="white" stroke-width="5.4" stroke-linecap="round" stroke-linejoin="round"/>
<path d="M237.458 474.432V450.627" stroke="white" stroke-width="5.4" stroke-linecap="round" stroke-linejoin="round"/>
<path fill-rule="evenodd" clip-rule="evenodd" d="M697.186 467.886C697.186 467.886 642.208 438.26 606.751 431.096C606.751 431.096 606.506 436.388 600.607 449.452C594.707 462.515 577.302 501.117 577.302 501.117L551.176 481.272L551.568 510.859L479.89 587.416L434.585 488.24L440.622 460.34L414.809 470.228L401.02 421.032C401.02 421.032 333.047 436.32 274.502 483.428C215.957 530.537 199.189 603.968 193.75 666.933C188.311 729.898 194.848 796.293 278.03 818.726C278.03 818.726 317.112 828.526 348.933 815.413C358.851 811.317 373.257 807.495 388.368 804.143L387.878 804.32C387.878 804.32 381.018 828.124 361.144 841.079C361.144 841.079 395.963 867.539 455.459 879.074C514.955 890.609 640.679 897.508 704.046 842.53C767.413 787.552 770 696.912 770 696.912C770 696.912 790.58 521.913 697.186 467.886ZM371.62 622.549C365.599 622.351 360.857 617.349 360.98 611.326C361.102 605.304 366.043 600.499 372.067 600.545C378.091 600.591 382.958 605.471 382.988 611.495C382.881 617.678 377.803 622.615 371.62 622.549ZM612.887 725.182C613.019 724.48 613.13 723.895 613.219 723.44C614.703 716.015 604.611 711.418 578.77 699.647C575.076 697.964 571.059 696.134 566.708 694.128C531.928 678.096 458.977 700.312 458.977 700.312C458.977 700.312 426.667 753.908 458.762 791.511C474.128 790.139 485.221 789.718 485.221 789.718C512.786 786.858 531.837 789.451 546.977 791.513C560.112 793.301 570.303 794.689 580.556 791.766C601.44 785.812 610.556 737.528 612.887 725.182Z" fill="#3FBDF1"/>
<path d="M674.44 871.724V940.618C563.21 940.618 412.721 940.441 304 940.304C302.657 904.848 300.541 823.282 309.537 822.704C321.052 821.999 333.233 814.619 347.287 831.397C361.34 848.174 420.169 878.182 502.577 885.238C584.986 892.294 654.477 872.88 669.912 864.482C669.922 864.491 674.44 856.436 674.44 871.724Z" fill="#3FBDF1"/>
<path fill-rule="evenodd" clip-rule="evenodd" d="M343.837 611.544C343.837 596.491 356.273 584.29 371.62 584.29V584.28C386.957 584.28 399.403 596.491 399.403 611.544C399.403 626.597 386.967 638.798 371.62 638.798C356.273 638.798 343.837 626.597 343.837 611.544ZM392.347 611.544C392.347 600.411 383.047 591.356 371.62 591.356C360.193 591.356 350.903 600.411 350.903 611.544C350.903 622.677 360.193 631.732 371.62 631.732C383.047 631.732 392.347 622.677 392.347 611.544Z" fill="white"/>
<path d="M511.937 461.28L494.12 481.302C492.939 482.251 491.421 482.675 489.92 482.475C488.418 482.275 487.063 481.469 486.172 480.243L473.638 453.274L498.04 433.879L511.937 461.28Z" fill="#3FBDF1"/>
<path d="M500.637 473.961L508.193 504.312L486.143 532.311L469.679 495.796L481.88 471.061" fill="#3FBDF1"/>
<path d="M575.686 256.558C571.766 257.44 568.336 260.478 565.719 263.722C563.286 266.765 561.227 270.088 559.584 273.62C559.584 273.62 551.313 238.34 547.824 207.735C546.658 197.778 543.169 192.447 538.926 189.761C530.174 184.215 518.346 190.144 518.346 190.144L479.048 211.547C471.508 215.701 463.209 218.294 454.646 219.171C450.644 219.632 446.603 219.632 442.602 219.171C420.953 208.47 420.64 166.251 446.943 165.957C447.734 166.696 448.477 167.485 449.168 168.319C448.789 167.542 448.436 166.767 448.109 165.996C449.58 166.041 451.045 166.205 452.49 166.486C454.646 166.908 456.655 169.132 457.997 170.691C451.01 157.127 458.458 140.036 472.227 134.852C480.596 131.706 489.955 132.304 498.687 134.146C500.069 134.421 501.441 134.744 502.823 135.126C524.716 141.732 543.885 153.207 558.046 172.366C575.97 196.602 580.448 227.286 575.686 256.558Z" fill="#2E2E2E"/>
<path d="M326.089 623.098C302.108 729.918 394.16 712.023 513.779 690.963C556.516 683.446 592.884 701.997 613.954 719.304" stroke="black" stroke-width="5.4" stroke-linejoin="round"/>
<path d="M401.02 421.022C346.659 434.399 282.528 466.847 247.248 510.888C201.06 568.463 191.388 645.021 192.436 716.688C193.416 786.709 266.789 835.072 333.39 819.941" stroke="black" stroke-width="5.4" stroke-linejoin="round"/>
<path d="M429.175 394.865H429.214" stroke="black" stroke-width="5.4" stroke-linejoin="round"/>
<path d="M619.834 627.038C619.834 627.038 621.794 673.382 613.954 719.305C610.397 740.267 604.801 761.141 596.069 777.487C591.297 786.278 582.177 791.833 572.177 792.04C563.223 792.203 554.267 791.847 545.354 790.972C468.542 783.759 396.551 799.586 344.052 816.981C340.524 818.138 336.977 819.118 333.41 819.921C366.524 849.968 451.715 905.514 612.788 881.426C829.368 849.086 761.679 563.093 761.679 563.093C755.799 532.281 737.434 503.675 715.355 482.007C690.345 457.507 641.855 441.308 608.888 431.047" stroke="black" stroke-width="5.4" stroke-linejoin="round"/>
<path d="M493.042 377.206C493.042 377.206 427.147 365.446 435.976 287.732C439.896 253.157 447.452 232.009 454.596 219.132" stroke="black" stroke-width="5.4" stroke-linejoin="round"/>
<path d="M555.448 356.763C567.62 338.574 565.758 314.427 569.58 308.351C575.46 298.923 598.98 269.514 584.868 258.92C581.614 256.48 578.507 255.98 575.685 256.548C566.189 258.665 559.584 273.61 559.584 273.61C559.584 273.61 551.322 238.33 547.824 207.715C544.325 177.1 518.335 190.134 518.335 190.134L479.037 211.527C471.501 215.69 463.201 218.287 454.635 219.161C450.154 219.689 445.623 219.653 441.151 219.053C410.771 215.133 408.811 157.617 443.659 164.173C445.815 164.595 447.824 166.819 449.167 168.378C442.17 154.814 449.628 137.723 463.397 132.539C471.766 129.393 481.125 129.991 489.857 131.833C517.12 137.586 541.16 149.473 558.045 172.366C575.979 196.621 580.467 227.305 575.685 256.578" stroke="black" stroke-width="5.4" stroke-linejoin="round"/>
<path d="M484.81 304.216H470.688L471.609 293.024L475.382 247.719" stroke="black" stroke-width="5.4" stroke-linejoin="round"/>
<path d="M471.58 293.024H432.791C427.065 293.024 422.423 288.382 422.423 282.656V247.729H487.985V282.656C487.99 288.384 492.635 293.024 498.363 293.024H536.828C542.556 293.024 547.201 288.384 547.206 282.656V247.729H487.985" stroke="black" stroke-width="5.4" stroke-linejoin="round"/>
<path d="M484.81 317.72C484.81 317.72 494.815 321.248 505.997 304.176" stroke="black" stroke-width="5.4" stroke-linejoin="round"/>
<path d="M479.488 590.846L552.518 509.8L551.185 481.263L576.44 503.028L608.887 431.087L608.976 430.9C601.041 426.225 593.638 420.701 586.896 414.427C583.793 411.513 580.853 408.468 578.076 405.293C574.8 401.574 571.744 397.667 568.923 393.592L566.64 390.368" stroke="black" stroke-width="5.4" stroke-linejoin="round"/>
<path d="M527.391 478.46L512.358 457.752L496.325 436.624L529.978 416.259L566.669 390.368L578.047 405.293L581.869 410.32L572.588 422.208L500.117 515.229V515.269L486.407 532.311" stroke="black" stroke-width="5.4" stroke-linejoin="round"/>
<path d="M457.105 466.68L496.305 436.653L448.148 388.525L429.9 405.734L486.397 532.34L479.488 590.856L434.595 488.24L440.602 460.349L414.789 470.208L399.805 421.531C417.027 414.886 432.599 404.577 445.443 391.318L448.168 388.496" stroke="black" stroke-width="5.4" stroke-linejoin="round"/>
<path d="M512.358 461.28L494.512 481.301C493.333 482.25 491.816 482.674 490.316 482.474C488.816 482.274 487.463 481.468 486.574 480.243L474.03 453.273" stroke="black" stroke-width="5.4" stroke-linejoin="round"/>
<path d="M501.058 473.961L508.624 504.312" stroke="black" stroke-width="5.4" stroke-linejoin="round"/>
<path d="M482.301 471.061L470.1 495.796" stroke="black" stroke-width="5.4" stroke-linejoin="round"/>
<path d="M566.64 390.368L555.448 356.724C552.402 360.993 548.475 364.559 543.933 367.181" stroke="black" stroke-width="5.4" stroke-linejoin="round"/>
<path d="M455.86 356.724L448.167 388.496" stroke="black" stroke-width="5.4" stroke-linejoin="round"/>
<circle cx="509.055" cy="270.817" r="5.1548" fill="black"/>
<circle cx="464.103" cy="270.817" r="5.1548" fill="black"/>
<path d="M608.025 431.4C608.025 431.4 642.698 444.708 611.553 498.52C601.753 515.396 596.442 525.392 593.727 531.115" stroke="black" stroke-width="5.4" stroke-linejoin="round"/>
<path d="M534.457 649.597C534.457 649.597 520.903 643.531 521.315 639.797C521.726 636.063 548.99 546.893 567.924 535.348C586.857 523.804 598.99 533.761 598.99 533.761C598.99 533.761 617.374 543.718 611.837 569.717C606.3 595.716 572.392 657.819 572.392 657.819L559.094 653.272" stroke="black" stroke-width="5.4" stroke-linejoin="round"/>
<path d="M387.888 424.756C387.888 424.756 368.19 489.436 372.208 585.76" stroke="black" stroke-width="5.4" stroke-linejoin="round"/>
<ellipse cx="371.596" cy="611.553" rx="29.4294" ry="28.3318" transform="rotate(-0.28 371.596 611.553)" stroke="black" stroke-width="5.4" stroke-linejoin="round"/>
<path d="M674.479 940.618V862.189V860.18" stroke="black" stroke-width="5.4" stroke-linejoin="round"/>
<path d="M304.676 940.334V822.646V822.606" stroke="black" stroke-width="5.4" stroke-linejoin="round"/>
<path d="M164.076 940.089C164.076 940.089 222.229 940.196 304.01 940.304C412.79 940.441 563.249 940.618 674.45 940.618C760.18 940.618 822.538 940.441 824.39 940.089" stroke="black" stroke-width="5.4" stroke-linejoin="round"/>
<circle cx="538.759" cy="650.656" r="7.1638" fill="white"/>
<circle cx="555.527" cy="652.047" r="7.1638" fill="white"/>
<circle cx="783.651" cy="210.155" r="118.208" fill="#3FBDF1"/>
<path d="M783.22 59C729.219 59.002 679.321 87.8118 652.321 134.578C625.312 181.339 625.312 238.961 652.321 285.723C679.321 332.489 729.219 361.299 783.22 361.301C837.22 361.299 887.118 332.489 914.118 285.723C941.118 238.958 941.118 181.342 914.118 134.578C887.118 87.8118 837.22 59.002 783.22 59Z" fill="#3FBDF1"/>
<path d="M818.294 171.847L814.257 169.005L855.231 110.215L859.268 113.057L818.294 171.847Z" fill="white"/>
<path d="M733 278.678L744.891 261.677L755.628 269.187L743.737 286.188L733 278.678Z" fill="white"/>
<path d="M825.233 187.233L769.275 267.231C766.335 271.494 761.347 273.189 758.211 271.004L742.315 259.9C739.189 257.715 739.091 252.491 742.07 248.219L798.028 168.221C800.968 163.958 805.956 162.253 809.092 164.448L824.988 175.561C828.114 177.737 828.212 182.96 825.233 187.233Z" fill="white"/>
<path d="M756.76 304.686C755.675 306.293 754.117 307.522 752.301 308.204C750.802 308.835 749.087 308.681 747.725 307.792L711.465 282.401C708.917 280.617 708.858 276.305 711.279 272.846C712.367 271.229 713.933 269.993 715.757 269.308C717.258 268.71 718.956 268.874 720.314 269.749L756.574 295.141C759.073 296.914 759.152 301.207 756.76 304.686Z" fill="white"/>
<circle cx="832.2" cy="435.604" r="42.3654" fill="#D7E8F0"/>
<circle cx="818.569" cy="424.393" r="13.6318" fill="white"/>
<circle cx="152.874" cy="820.499" r="42.3654" fill="#D7E8F0"/>
<circle cx="701.066" cy="398.355" r="21.1778" fill="#D7E8F0"/>
<circle cx="142.192" cy="808.465" r="13.6318" fill="white"/>
<circle cx="853.8" cy="829.652" r="21.1778" fill="#D7E8F0"/>
<circle cx="693.521" cy="393.249" r="7.546" fill="white"/>
<circle cx="844.989" cy="825.272" r="5.2626" fill="white"/>
<circle cx="354.587" cy="132.167" r="21.1778" fill="#D7E8F0"/>
<circle cx="351.373" cy="130.285" r="7.546" fill="white"/>
<circle cx="789.845" cy="643.491" r="78.4392" fill="white"/>
<circle cx="789.845" cy="643.492" r="60.4072" fill="#3FBDF1"/>
<path d="M789.1 631.261C788.385 627.753 795.568 621.951 797.969 620.687C806.73 616.1 820.186 619.56 824.988 628.321C835.983 648.411 805.064 677.056 789.11 684.122C787.267 682.652 743.589 649.979 753.83 629.066C764.071 608.153 786.572 618.786 789.1 631.261Z" fill="white"/>
</svg>
