<svg width="1064" height="186" viewBox="0 0 1064 186" fill="none" xmlns="http://www.w3.org/2000/svg">
<path d="M0.0375002 28.6V2.2H104.038V28.6H66.8375V140H37.2375V28.6H0.0375002ZM173.033 109.2L193.233 123C184.699 135.667 170.499 142 150.633 142C136.899 142 125.299 137.467 115.833 128.4C106.499 119.2 101.833 107.4 101.833 93C101.833 78.6 106.499 66.9333 115.833 58C125.299 49.0667 136.899 44.6 150.633 44.6C164.233 44.6 175.566 49.2 184.633 58.4C193.833 67.4667 198.433 79.2667 198.433 93.8C198.433 96.3333 198.299 99.2 198.033 102.4H129.633C130.299 107.467 132.899 111.333 137.433 114C142.099 116.667 147.166 118 152.633 118C161.699 118 168.499 115.067 173.033 109.2ZM130.033 85H170.433C169.766 79.8 167.433 75.8667 163.433 73.2C159.566 70.4 155.366 69 150.833 69C146.299 69 141.966 70.3333 137.833 73C133.699 75.6667 131.099 79.6667 130.033 85ZM286.594 140V129.4C283.927 133.4 279.794 136.467 274.194 138.6C268.727 140.733 263.794 141.8 259.394 141.8C246.86 141.8 235.794 137.333 226.194 128.4C216.594 119.333 211.794 107.6 211.794 93.2C211.794 78.8 216.594 67.1333 226.194 58.2C235.794 49.1333 246.86 44.6 259.394 44.6C263.794 44.6 268.594 45.5333 273.794 47.4C279.127 49.2667 283.394 52.4667 286.594 57V46.6H314.194V140H286.594ZM247.594 77.4C242.927 81.5333 240.594 86.8 240.594 93.2C240.594 99.6 242.927 104.933 247.594 109.2C252.394 113.333 257.86 115.4 263.994 115.4C269.994 115.4 275.26 113.4 279.794 109.4C284.327 105.267 286.594 99.8667 286.594 93.2C286.594 86.5333 284.327 81.2 279.794 77.2C275.26 73.0667 269.994 71 263.994 71C257.86 71 252.394 73.1333 247.594 77.4ZM437.683 95.4L461.283 111.8C455.149 121.133 447.016 128.533 436.883 134C426.749 139.333 415.549 142 403.283 142C383.683 142 367.216 135.133 353.883 121.4C340.683 107.667 334.083 91 334.083 71.4C334.083 51.6667 340.683 34.9333 353.883 21.2C367.216 7.46666 383.683 0.599995 403.283 0.599995C415.283 0.599995 426.283 3.26666 436.283 8.6C446.416 13.8 454.549 20.8667 460.683 29.8L436.883 46.2C428.616 34.2 417.416 28.2 403.283 28.2C391.949 28.2 382.483 32.4 374.883 40.8C367.283 49.0667 363.483 59.2667 363.483 71.4C363.483 83.4 367.283 93.6 374.883 102C382.483 110.267 391.949 114.4 403.283 114.4C410.349 114.4 416.883 112.667 422.883 109.2C428.883 105.733 433.816 101.133 437.683 95.4ZM538.727 96V46.6H566.527V140H538.727V127.2C536.327 131.733 532.86 135.333 528.327 138C523.793 140.667 519.193 142 514.527 142C503.593 142 494.66 138.6 487.727 131.8C480.927 125 477.527 115.2 477.527 102.4V46.6H505.327V96.4C505.327 103.067 507.06 107.867 510.527 110.8C513.993 113.6 517.793 115 521.927 115C526.727 115 530.727 113.467 533.927 110.4C537.127 107.333 538.727 102.533 538.727 96ZM620.398 93.6C620.398 100.4 622.465 105.8 626.598 109.8C630.865 113.8 635.998 115.8 641.998 115.8C647.998 115.8 653.065 113.733 657.198 109.6C661.465 105.467 663.598 100.133 663.598 93.6C663.598 86.9333 661.465 81.5333 657.198 77.4C653.065 73.1333 647.998 71 641.998 71C635.998 71 630.865 73.1333 626.598 77.4C622.465 81.6667 620.398 87.0667 620.398 93.6ZM592.198 46.6H619.798V58.2C622.065 53.9333 625.665 50.6 630.598 48.2C635.665 45.8 641.198 44.6 647.198 44.6C659.598 44.6 670.198 49.1333 678.998 58.2C687.932 67.1333 692.398 78.7333 692.398 93C692.398 107.533 687.932 119.333 678.998 128.4C670.198 137.467 659.598 142 647.198 142C641.198 142 635.665 140.8 630.598 138.4C625.665 136 622.065 132.733 619.798 128.6V185.8H592.198V46.6ZM839.939 91L881.139 2.2H905.739L922.539 140H893.139L883.539 57.4L851.339 124.2H828.739L796.339 57.4L786.539 140H757.139L774.139 2.2H798.339L839.939 91ZM976.556 28.8V113.4H1001.36C1011.89 113.4 1020.02 109.4 1025.76 101.4C1031.49 93.4 1034.36 83.4 1034.36 71.4C1034.36 59.2667 1031.49 49.1333 1025.76 41C1020.02 32.8667 1011.89 28.8 1001.36 28.8H976.556ZM1001.36 140H947.356V2.2H1001.36C1020.69 2.2 1035.89 8.73333 1046.96 21.8C1058.02 34.7333 1063.56 51.2667 1063.56 71.4C1063.56 91.5333 1058.02 108 1046.96 120.8C1035.89 133.6 1020.69 140 1001.36 140Z" fill="#0065FF"/>
</svg>
